<?xml version="1.0" encoding="utf-8"?>
<!-- Generator: Adobe Illustrator 25.4.1, SVG Export Plug-In . SVG Version: 6.00 Build 0)  -->
<svg version="1.1" id="Layer_1" xmlns="http://www.w3.org/2000/svg" xmlns:xlink="http://www.w3.org/1999/xlink" x="0px" y="0px"
	 viewBox="0 0 550 310.7" style="enable-background:new 0 0 550 310.7;" xml:space="preserve">
<style type="text/css">
	.st0{fill:#222222;}
</style>
<g>
	<g>
		<path class="st0" d="M203.3,4c4.4,0,8,3.6,8,8c0,3.8-2.8,7.1-6.6,7.8c-0.6,0.1-1,0.1-1.4,0.1s-0.9-0.1-1.3-0.1
			c-3.8-0.6-6.6-3.9-6.6-7.8C195.3,7.6,198.9,4,203.3,4 M203.3,0c-6.6,0-12,5.3-12,12c0,5.9,4.3,10.8,9.9,11.7
			c0.7,0.1,1.3,0.2,2,0.2s1.4-0.1,2.1-0.2c5.6-1,9.8-5.9,9.8-11.7C215.2,5.3,209.9,0,203.3,0L203.3,0z"/>
	</g>
</g>
<path class="st0" d="M239.1,119.3h-12c-6.6,0-12-5.3-12-12V95.4V71.5v-12c0-6.6-5.4-12-12-12l0,0c-6.6,0-12,5.3-12,12v12v23.9v12
	c0,6.6-5.4,12-12,12h-12h-12c-6.6,0-12,5.3-12,12l0,0c0,6.6,5.4,12,12,12h12H191h23.9h23.9h12c6.6,0,12-5.4,12-12l0,0
	c0-6.6-5.4-12-12-12L239.1,119.3L239.1,119.3z"/>
<path class="st0" d="M502.2,167.3h-23.9h-12c-6.6,0-12,5.4-12,12l0,0c0,6.6,5.4,12,12,12h12h23.9h12c6.6,0,12-5.4,12-12l0,0
	c0-6.6-5.3-12-12-12H502.2z"/>
<g>
	<g>
		<path class="st0" d="M442.4,195.2c0.4,0,0.8,0.1,1.4,0.1c3.8,0.7,6.6,3.9,6.6,7.8c0,4.4-3.6,8-8,8s-8-3.6-8-8
			c0-3.9,2.8-7.1,6.6-7.8C441.6,195.3,442,195.2,442.4,195.2 M442.4,191.2c-0.7,0-1.4,0.1-2.1,0.2c-5.6,1-9.9,5.9-9.9,11.8
			c0,6.6,5.4,12,12,12s12-5.4,12-12c0-5.9-4.3-10.8-9.9-11.8C443.8,191.3,443.1,191.2,442.4,191.2L442.4,191.2z"/>
	</g>
</g>
<path class="st0" d="M358.7,167.3h-23.9h-12c-6.6,0-12,5.4-12,12l0,0c0,6.6,5.4,12,12,12h12h23.9h12c6.6,0,12-5.4,12-12l0,0
	c0-6.6-5.4-12-12-12H358.7z"/>
<path class="st0" d="M420.6,154.1h-100c-13.1,0-23.8,10.7-23.8,23.8v13.6c0.7-0.1,1.4-0.2,2.1-0.2s1.4,0.1,2.1,0.2v-13.6
	c0-10.9,8.8-19.7,19.7-19.7h100c10.9,0,19.7,8.8,19.7,19.7v13.6c0.7-0.1,1.4-0.2,2.1-0.2s1.4,0.1,2.1,0.2v-13.6
	C444.5,164.8,433.8,154.1,420.6,154.1z"/>
<g>
	<g>
		<path class="st0" d="M298.9,195.2c0.4,0,0.8,0.1,1.4,0.1c3.8,0.7,6.6,3.9,6.6,7.8c0,4.4-3.6,8-8,8s-8-3.6-8-8
			c0-3.9,2.8-7.1,6.6-7.8C298.1,195.3,298.5,195.2,298.9,195.2 M298.9,191.2c-0.7,0-1.4,0.1-2.1,0.2c-5.6,1-9.9,5.9-9.9,11.8
			c0,6.6,5.4,12,12,12s12-5.4,12-12c0-5.9-4.3-10.8-9.9-11.8C300.3,191.3,299.6,191.2,298.9,191.2L298.9,191.2z"/>
	</g>
</g>
<path class="st0" d="M358.7,0.2h-23.9h-12c-6.6,0-12,5.3-12,12l0,0c0,6.6,5.4,12,12,12h12h23.9h12c6.6,0,12-5.4,12-12l0,0
	c0-6.6-5.4-12-12-12C370.7,0.2,358.7,0.2,358.7,0.2z"/>
<path class="st0" d="M287.2,34h-71c-5.8,0-10.5-4.6-10.8-10.3c-0.7,0.1-1.4,0.2-2.1,0.2c-0.7,0-1.4-0.1-2-0.2
	c0.3,8,6.9,14.4,14.9,14.4h71c-0.1-0.7-0.2-1.4-0.2-2.1C287,35.4,287,34.7,287.2,34z"/>
<g>
	<g>
		<path class="st0" d="M298.9,28.1c4.4,0,8,3.6,8,8s-3.6,8-8,8c-3.9,0-7.1-2.8-7.8-6.6c-0.1-0.6-0.1-1-0.1-1.4s0-0.8,0.1-1.4
			C291.8,30.9,295,28.1,298.9,28.1 M298.9,24.1c-5.9,0-10.8,4.3-11.8,9.9c-0.1,0.7-0.2,1.3-0.2,2.1c0,0.7,0.1,1.4,0.2,2.1
			c1,5.6,5.9,9.9,11.8,9.9c6.6,0,12-5.3,12-12S305.5,24.1,298.9,24.1L298.9,24.1z"/>
	</g>
</g>
<path class="st0" d="M107.6,0.3c-6.6,0-12,5.3-12,12v12V48v0.3V60c0,6.6-5.3,12-12,12l0,0c-6.6,0-12,5.3-12,12l0,0
	c0,6.6,5.3,12,12,12l0,0c6.6,0,12,5.3,12,12v12v12c0,6.6,5.3,12,12,12l0,0c6.6,0,12-5.4,12-12v-12V95.7v-24V48.1v-0.3V24.2v-12
	C119.6,5.6,114.2,0.3,107.6,0.3L107.6,0.3z"/>
<g>
	<path class="st0" d="M59.8,51.8c4.4,0,8,3.6,8,8c0,3.9-2.8,7.1-6.6,7.8c-0.6,0.1-1,0.2-1.4,0.2s-0.8-0.1-1.4-0.2
		c-3.8-0.7-6.6-4-6.6-7.8C51.8,55.4,55.4,51.8,59.8,51.8 M59.8,47.8c-6.6,0-12,5.3-12,12c0,5.9,4.3,10.8,9.9,11.8
		c0.7,0.1,1.3,0.2,2.1,0.2c0.7,0,1.4-0.1,2.1-0.2c5.6-1,9.9-5.8,9.9-11.8C71.7,53.2,66.4,47.8,59.8,47.8L59.8,47.8z"/>
</g>
<path class="st0" d="M23.9,12.2L23.9,12.2c0-6.6-5.4-12-12-12l0,0C5.3,0.3,0,5.6,0,12.2v12v23.7v0.3v23.7v23.9v23.9v12
	c0,6.6,5.3,12,12,12l0,0c6.6,0,12-5.4,12-12v-12v-24v-24V60c0-6.6,5.4-12,12-12l0,0c6.6,0,12-5.3,12-12l0,0c0-6.6-5.3-12-12-12l0,0
	C29.3,24.2,23.9,18.8,23.9,12.2z"/>
<path class="st0" d="M107.6,167.4c-6.6,0-12,5.4-12,12v12V203c0,6.6-5.3,12-12,12l0,0c-6.6,0-12,5.4-12,12l0,0c0,6.6,5.3,12,12,12
	l0,0c6.6,0,12,5.4,12,12v12v23.9v12c0,6.6,5.3,12,12,12l0,0c6.6,0,12-5.4,12-12v-12V263v-23.9v-23.7V215v-23.7v-12
	C119.6,172.7,114.2,167.4,107.6,167.4L107.6,167.4z"/>
<path class="st0" d="M61.8,239.1V71.5c-0.7,0.1-1.4,0.2-2.1,0.2c-0.7,0-1.4-0.1-2.1-0.2v167.6c0.7-0.1,1.3-0.2,2.1-0.2
	C60.5,238.9,61.2,239,61.8,239.1z"/>
<g>
	<g>
		<path class="st0" d="M59.8,242.9c0.4,0,0.8,0.1,1.4,0.1c3.8,0.7,6.6,3.9,6.6,7.8c0,4.4-3.6,8-8,8s-8-3.6-8-8
			c0-3.9,2.8-7.1,6.6-7.8C59,242.9,59.4,242.9,59.8,242.9 M59.8,238.9c-0.7,0-1.4,0.1-2.1,0.2c-5.6,1-9.9,5.9-9.9,11.8
			c0,6.6,5.3,12,12,12c6.6,0,12-5.4,12-12c0-5.9-4.3-10.8-9.9-11.8C61.2,239,60.5,238.9,59.8,238.9L59.8,238.9z"/>
	</g>
</g>
<path class="st0" d="M35.9,215c-6.6,0-12-5.4-12-12v-11.7v-12c0-6.6-5.4-12-12-12l0,0c-6.6,0-12,5.4-12,12v12V215v0.3V239v23.9v23.9
	v12c0,6.6,5.3,12,12,12l0,0c6.6,0,12-5.4,12-12v-12v-23.9v-12c0-6.6,5.4-12,12-12l0,0c6.6,0,12-5.4,12-12l0,0
	C47.8,220.3,42.5,215,35.9,215L35.9,215z"/>
<path class="st0" d="M394.6,24.1L394.6,24.1c-6.6,0-12,5.4-12,12v11.7V48v11.7v0.1v0.1c0,6.3-5,11.5-11.3,11.8
	c-0.2,0-0.5-0.1-0.7-0.1h-11.9h-23.9h-12c-6.6,0-12,5.3-12,12v0.3c0,6.5,5.3,11.8,11.8,11.8h12.1h23.9h12.1
	c6.5,0,11.8-5.3,11.8-11.8s5.3-11.8,11.8-11.8h0.3c6.5,0,11.8-5.3,11.8-11.8V60v-0.1v-0.1V48v-0.3V36.1
	C406.5,29.5,401.2,24.1,394.6,24.1z"/>
<path class="st0" d="M394.6,119.5h-12h-23.9h-23.9h-12c-6.6,0-12-5.3-12-12c0-6.6-5.4-12-12-12s-12,5.3-12,12v12v12
	c0,6.6,5.4,12,12,12h12h23.9h23.9h23.9h12c6.6,0,12-5.4,12-12C406.5,124.8,401.2,119.5,394.6,119.5z"/>
<path class="st0" d="M538,191.2L538,191.2c-6.6,0-12,5.4-12,12v11.7v0.3v11.7v0.1v0.1c0,6.3-5,11.5-11.3,11.8
	c-0.2,0-0.5-0.1-0.7-0.1h-12h-23.9h-11.9c-6.6,0-12,5.4-12,12v0.3c0,6.5,5.3,11.8,11.8,11.8h12.1H502h12.1c6.5,0,11.8-5.3,11.8-11.8
	c0-6.5,5.3-11.8,11.8-11.8h0.3c6.5,0,11.8-5.3,11.8-11.8v-0.3v-0.1V227v-11.7V215v-11.7C550,196.6,544.7,191.2,538,191.2z"/>
<path class="st0" d="M538,286.6h-12h-23.9h-23.9h-12c-6.6,0-12-5.4-12-12s-5.4-12-12-12s-12,5.4-12,12v12v12c0,6.6,5.4,12,12,12h12
	h23.9H502h23.9h12c6.6,0,12-5.4,12-12C550,292,544.7,286.6,538,286.6z"/>
<path class="st0" d="M251.2,167.3h-12.1h-23.9h-23.9h-12.1c-6.5,0-11.8,5.3-11.8,11.8v0.3c0,6.5,5.3,11.8,11.8,11.8h12.1h23.9h23.9
	h12.1c6.5,0,11.8-5.3,11.8-11.8v-0.3C263,172.6,257.8,167.3,251.2,167.3z"/>
<path class="st0" d="M155.3,215.1h0.3c6.5,0,11.8,5.3,11.8,11.8s5.3,11.8,11.8,11.8h12.1h23.9h12.1c6.5,0,11.8-5.3,11.8-11.8v-0.3
	c0-6.5-5.3-11.8-11.8-11.8h-12.1h-23.9h-12.1c-6.5,0-11.8-5.3-11.8-11.8s-5.3-11.8-11.8-11.8h-0.3c-6.5,0-11.8,5.3-11.8,11.8v0.3
	C143.5,209.8,148.8,215.1,155.3,215.1z"/>
<path class="st0" d="M538,23.9c-6.6,0-12,5.4-12,12v11.7v0.3v23.7v23.9v12c0,0,0,0,0,0.1s0,0,0,0.1c0,6.5-5.3,11.8-11.8,11.8h-0.1
	l0,0h-12h-23.9h-12l0,0h-0.1c-6.5,0-11.8,5.3-11.8,11.8v0.3c0,6.5,5.3,11.8,11.8,11.8h12.1h23.9h12.1c6.5,0,11.8-5.3,11.8-11.8
	s5.3-11.8,11.8-11.8h0.3c6.5,0,11.8-5.3,11.8-11.8v-0.3c0,0,0,0,0-0.1s0,0,0-0.1v-12v-24V47.8v-0.3V35.9
	C550,29.3,544.7,23.9,538,23.9z"/>
<path class="st0" d="M442.4,119.3c6.6,0,12-5.3,12-12V95.4V71.5V47.8v-0.3V36c0-6.5,5.3-11.8,11.8-11.8h12.1h23.9h12.1
	c6.5,0,11.8-5.3,11.8-11.8v-0.3c0,0,0,0,0-0.1s0,0,0-0.1c0-6.6-5.3-12-12-12h-12h-23.9h-12c-6.6,0-12,5.3-12,12c0,0,0,0,0,0.1
	s0,0,0,0.1c0,6.5-5.3,11.8-11.8,11.8h-0.1l0,0l0,0h-0.1c-6.5,0-11.8,5.3-11.8,11.8v0.1V36v11.6v0.3v23.7v23.9v12
	C430.4,114,435.8,119.3,442.4,119.3z"/>
<path class="st0" d="M394.6,191.2L394.6,191.2c-6.6,0-12,5.4-12,12v11.7v0.3v11.7v0.1v0.1c0,6.3-5,11.5-11.3,11.8
	c-0.2,0-0.5-0.1-0.7-0.1h-11.9h-23.9h-12c-6.6,0-12,5.4-12,12v0.3c0,6.5,5.3,11.8,11.8,11.8h12.1h23.9h12.1
	c6.5,0,11.8-5.3,11.8-11.8c0-6.5,5.3-11.8,11.8-11.8h0.3c6.5,0,11.8-5.3,11.8-11.8v-0.3v-0.1V227v-11.7V215v-11.7
	C406.5,196.5,401.2,191.2,394.6,191.2z"/>
<path class="st0" d="M394.6,286.6h-12h-23.9h-23.9h-12c-6.6,0-12-5.4-12-12s-5.4-12-12-12s-12,5.4-12,12v12v12c0,6.6,5.4,12,12,12
	h12h23.9h23.9h23.9h12c6.6,0,12-5.4,12-12C406.5,291.9,401.2,286.6,394.6,286.6z"/>
<path class="st0" d="M262.9,298.8c0-6.6-5.4-12-12-12h-11.7H239h-23.7h-23.9h-12c0,0,0,0-0.1,0s0,0-0.1,0c-6.5,0-11.8-5.3-11.8-11.8
	v-0.1l0,0v-23.1l0,0v-0.1c0-6.5-5.3-11.8-11.8-11.8h-0.3c-6.5,0-11.8,5.3-11.8,11.8V275c0,6.5,5.3,11.8,11.8,11.8
	s11.8,5.3,11.8,11.8v0.3c0,6.5,5.3,11.8,11.8,11.8h0.3c0,0,0,0,0.1,0s0,0,0.1,0h12h23.9H239h0.3H251
	C257.6,310.7,262.9,305.4,262.9,298.8z"/>
</svg>
